<svg width="78" height="78" viewBox="0 0 78 78" fill="none" xmlns="http://www.w3.org/2000/svg">
<g id="avatar">
<rect width="78" height="78" fill="#F8F8F9"/>
<g id="Vector">
<path d="M39 25.8571C37.3754 25.8571 35.7872 26.3389 34.4364 27.2415C33.0856 28.1441 32.0327 29.427 31.411 30.928C30.7893 32.4289 30.6266 34.0805 30.9436 35.674C31.2605 37.2674 32.0428 38.731 33.1916 39.8798C34.3404 41.0286 35.8041 41.8109 37.3975 42.1279C38.9909 42.4448 40.6425 42.2822 42.1435 41.6604C43.6444 41.0387 44.9273 39.9859 45.8299 38.635C46.7325 37.2842 47.2143 35.6961 47.2143 34.0714C47.2143 31.8929 46.3489 29.8035 44.8084 28.263C43.2679 26.7226 41.1786 25.8571 39 25.8571Z" fill="#5E5F5F"/>
<path d="M39 16C34.451 16 30.0042 17.3489 26.2219 19.8762C22.4396 22.4035 19.4916 25.9956 17.7508 30.1983C16.01 34.401 15.5545 39.0255 16.4419 43.4871C17.3294 47.9486 19.5199 52.0468 22.7366 55.2634C25.9532 58.4801 30.0514 60.6706 34.5129 61.5581C38.9745 62.4455 43.599 61.99 47.8017 60.2492C52.0044 58.5084 55.5965 55.5604 58.1238 51.7781C60.6511 47.9958 62 43.549 62 39C61.993 32.9022 59.5676 27.0561 55.2558 22.7442C50.9439 18.4324 45.0978 16.007 39 16ZM52.1297 53.6641C52.097 51.5093 51.219 49.4535 49.685 47.9397C48.151 46.426 46.0837 45.5755 43.9286 45.5714H34.0714C31.9163 45.5755 29.849 46.426 28.315 47.9397C26.781 49.4535 25.903 51.5093 25.8703 53.6641C22.8911 51.0039 20.7901 47.5016 19.8457 43.6208C18.9012 39.74 19.1577 35.6639 20.5813 31.9322C22.0049 28.2005 24.5284 24.9892 27.8177 22.7235C31.1069 20.4578 35.0068 19.2447 39.0008 19.2447C42.9949 19.2447 46.8947 20.4578 50.184 22.7235C53.4732 24.9892 55.9967 28.2005 57.4203 31.9322C58.8439 35.6639 59.1005 39.74 58.156 43.6208C57.2115 47.5016 55.1089 51.0039 52.1297 53.6641Z" fill="#5E5F5F"/>
</g>
</g>
</svg>
