<svg width="24" height="24" viewBox="0 0 24 24" fill="none" xmlns="http://www.w3.org/2000/svg">
<path d="M19.5396 16.8816H19.5395H3.96053V16.8813L3.94839 16.8819L3.80818 16.8887L3.80816 16.8884L3.79619 16.8896C3.35896 16.932 2.95479 17.1409 2.66744 17.4732C2.3801 17.8055 2.23159 18.2355 2.2527 18.6743C2.27381 19.1131 2.46292 19.5269 2.78084 19.8301C3.09876 20.1332 3.52112 20.3024 3.9604 20.3026H3.96053H19.5395V20.3029L19.5516 20.3023L19.6918 20.2955L19.6918 20.2958L19.7038 20.2946C20.141 20.2523 20.5452 20.0433 20.8326 19.711C21.1199 19.3788 21.2684 18.9487 21.2473 18.5099C21.2262 18.0711 21.0371 17.6573 20.7192 17.3542C20.4012 17.051 19.9789 16.8818 19.5396 16.8816ZM20.749 10.5668C20.4282 10.246 19.9931 10.0658 19.5395 10.0658H3.96053C3.50687 10.0658 3.07179 10.246 2.751 10.5668C2.43022 10.8876 2.25 11.3227 2.25 11.7763C2.25 12.23 2.43022 12.6651 2.751 12.9858C3.07179 13.3066 3.50687 13.4868 3.96053 13.4868H19.5395C19.9931 13.4868 20.4282 13.3066 20.749 12.9858C21.0698 12.6651 21.25 12.23 21.25 11.7763C21.25 11.3227 21.0698 10.8876 20.749 10.5668ZM20.749 3.751C20.4282 3.43022 19.9931 3.25 19.5395 3.25H3.96053C3.50687 3.25 3.07179 3.43022 2.751 3.751C2.43022 4.07179 2.25 4.50687 2.25 4.96053C2.25 5.41419 2.43022 5.84927 2.751 6.17005C3.07179 6.49084 3.50687 6.67105 3.96053 6.67105H19.5395C19.9931 6.67105 20.4282 6.49084 20.749 6.17005C21.0698 5.84927 21.25 5.41419 21.25 4.96053C21.25 4.50687 21.0698 4.07179 20.749 3.751Z" fill="white" stroke="white" stroke-width="0.5"/>
</svg>
