<svg width="178" height="28" viewBox="0 0 178 28" fill="none" xmlns="http://www.w3.org/2000/svg">
<path d="M21 15.6786C21 17.8856 20.0518 20.0022 18.364 21.5627C16.6761 23.1233 14.3869 24 12 24C9.61305 24 7.32387 23.1233 5.63604 21.5627C3.94821 20.0022 3 17.8856 3 15.6786C3 13.5893 3.96848 11.1833 5.87609 8.52409C5.9333 8.44503 6.00682 8.37717 6.09243 8.3244C6.17803 8.27163 6.27406 8.23499 6.375 8.21657C6.57848 8.1804 6.78918 8.21936 6.96196 8.32511L10.112 10.2698L13.1348 4.40864C13.1888 4.30398 13.2696 4.21305 13.3702 4.14371C13.4707 4.07437 13.588 4.02871 13.712 4.01067C13.835 3.99092 13.9613 3.99867 14.0805 4.03329C14.1996 4.06791 14.308 4.12838 14.3967 4.20965C15.8348 5.53926 17.488 7.15831 18.7598 9.03966C20.2663 11.2557 21 13.4265 21 15.6786Z" fill="#262626"/>
<path d="M48.384 8.88V10.368H45.424V20H43.6V10.368H40.624V8.88H48.384ZM52.0553 12.464C52.3219 12.016 52.6739 11.6693 53.1113 11.424C53.5593 11.168 54.0873 11.04 54.6953 11.04V12.928H54.2313C53.5166 12.928 52.9726 13.1093 52.5993 13.472C52.2366 13.8347 52.0553 14.464 52.0553 15.36V20H50.2313V11.184H52.0553V12.464ZM64.4519 15.376C64.4519 15.7067 64.4305 16.0053 64.3879 16.272H57.6519C57.7052 16.976 57.9665 17.5413 58.4359 17.968C58.9052 18.3947 59.4812 18.608 60.1639 18.608C61.1452 18.608 61.8385 18.1973 62.2439 17.376H64.2119C63.9452 18.1867 63.4599 18.8533 62.7559 19.376C62.0625 19.888 61.1985 20.144 60.1639 20.144C59.3212 20.144 58.5639 19.9573 57.8919 19.584C57.2305 19.2 56.7079 18.6667 56.3239 17.984C55.9505 17.2907 55.7639 16.4907 55.7639 15.584C55.7639 14.6773 55.9452 13.8827 56.3079 13.2C56.6812 12.5067 57.1985 11.9733 57.8599 11.6C58.5319 11.2267 59.2999 11.04 60.1639 11.04C60.9959 11.04 61.7372 11.2213 62.3879 11.584C63.0385 11.9467 63.5452 12.4587 63.9079 13.12C64.2705 13.7707 64.4519 14.5227 64.4519 15.376ZM62.5479 14.8C62.5372 14.128 62.2972 13.5893 61.8279 13.184C61.3585 12.7787 60.7772 12.576 60.0839 12.576C59.4545 12.576 58.9159 12.7787 58.4679 13.184C58.0199 13.5787 57.7532 14.1173 57.6679 14.8H62.5479ZM70.6949 11.04C71.3882 11.04 72.0069 11.184 72.5509 11.472C73.1055 11.76 73.5375 12.1867 73.8469 12.752C74.1562 13.3173 74.3109 14 74.3109 14.8V20H72.5029V15.072C72.5029 14.2827 72.3055 13.68 71.9109 13.264C71.5162 12.8373 70.9775 12.624 70.2949 12.624C69.6122 12.624 69.0682 12.8373 68.6629 13.264C68.2682 13.68 68.0709 14.2827 68.0709 15.072V20H66.2469V11.184H68.0709V12.192C68.3695 11.8293 68.7482 11.5467 69.2069 11.344C69.6762 11.1413 70.1722 11.04 70.6949 11.04ZM76.0295 15.552C76.0295 14.6667 76.2108 13.8827 76.5735 13.2C76.9468 12.5173 77.4482 11.9893 78.0775 11.616C78.7175 11.232 79.4268 11.04 80.2055 11.04C80.7815 11.04 81.3468 11.168 81.9015 11.424C82.4668 11.6693 82.9148 12 83.2455 12.416V8.16H85.0855V20H83.2455V18.672C82.9468 19.0987 82.5308 19.4507 81.9975 19.728C81.4748 20.0053 80.8722 20.144 80.1895 20.144C79.4215 20.144 78.7175 19.952 78.0775 19.568C77.4482 19.1733 76.9468 18.6293 76.5735 17.936C76.2108 17.232 76.0295 16.4373 76.0295 15.552ZM83.2455 15.584C83.2455 14.976 83.1175 14.448 82.8615 14C82.6162 13.552 82.2908 13.2107 81.8855 12.976C81.4802 12.7413 81.0428 12.624 80.5735 12.624C80.1042 12.624 79.6668 12.7413 79.2615 12.976C78.8562 13.2 78.5255 13.536 78.2695 13.984C78.0242 14.4213 77.9015 14.944 77.9015 15.552C77.9015 16.16 78.0242 16.6933 78.2695 17.152C78.5255 17.6107 78.8562 17.9627 79.2615 18.208C79.6775 18.4427 80.1148 18.56 80.5735 18.56C81.0428 18.56 81.4802 18.4427 81.8855 18.208C82.2908 17.9733 82.6162 17.632 82.8615 17.184C83.1175 16.7253 83.2455 16.192 83.2455 15.584ZM88.4093 10.016C88.0786 10.016 87.8013 9.904 87.5773 9.68C87.3533 9.456 87.2413 9.17867 87.2413 8.848C87.2413 8.51733 87.3533 8.24 87.5773 8.016C87.8013 7.792 88.0786 7.68 88.4093 7.68C88.7293 7.68 89.0013 7.792 89.2253 8.016C89.4493 8.24 89.5613 8.51733 89.5613 8.848C89.5613 9.17867 89.4493 9.456 89.2253 9.68C89.0013 9.904 88.7293 10.016 88.4093 10.016ZM89.3053 11.184V20H87.4813V11.184H89.3053ZM96.148 11.04C96.8413 11.04 97.46 11.184 98.004 11.472C98.5587 11.76 98.9907 12.1867 99.3 12.752C99.6093 13.3173 99.764 14 99.764 14.8V20H97.956V15.072C97.956 14.2827 97.7587 13.68 97.364 13.264C96.9693 12.8373 96.4307 12.624 95.748 12.624C95.0653 12.624 94.5213 12.8373 94.116 13.264C93.7213 13.68 93.524 14.2827 93.524 15.072V20H91.7V11.184H93.524V12.192C93.8227 11.8293 94.2013 11.5467 94.66 11.344C95.1293 11.1413 95.6253 11.04 96.148 11.04ZM105.643 11.04C106.325 11.04 106.928 11.1787 107.451 11.456C107.984 11.7227 108.4 12.0587 108.699 12.464V11.184H110.539V20.144C110.539 20.9547 110.368 21.6747 110.027 22.304C109.685 22.944 109.189 23.4453 108.539 23.808C107.899 24.1707 107.131 24.352 106.235 24.352C105.04 24.352 104.048 24.0693 103.259 23.504C102.469 22.9493 102.021 22.192 101.915 21.232H103.723C103.861 21.6907 104.155 22.0587 104.603 22.336C105.061 22.624 105.605 22.768 106.235 22.768C106.971 22.768 107.563 22.544 108.011 22.096C108.469 21.648 108.699 20.9973 108.699 20.144V18.672C108.389 19.088 107.968 19.44 107.435 19.728C106.912 20.0053 106.315 20.144 105.643 20.144C104.875 20.144 104.171 19.952 103.531 19.568C102.901 19.1733 102.4 18.6293 102.027 17.936C101.664 17.232 101.483 16.4373 101.483 15.552C101.483 14.6667 101.664 13.8827 102.027 13.2C102.4 12.5173 102.901 11.9893 103.531 11.616C104.171 11.232 104.875 11.04 105.643 11.04ZM108.699 15.584C108.699 14.976 108.571 14.448 108.315 14C108.069 13.552 107.744 13.2107 107.339 12.976C106.933 12.7413 106.496 12.624 106.027 12.624C105.557 12.624 105.12 12.7413 104.715 12.976C104.309 13.2 103.979 13.536 103.723 13.984C103.477 14.4213 103.355 14.944 103.355 15.552C103.355 16.16 103.477 16.6933 103.723 17.152C103.979 17.6107 104.309 17.9627 104.715 18.208C105.131 18.4427 105.568 18.56 106.027 18.56C106.496 18.56 106.933 18.4427 107.339 18.208C107.744 17.9733 108.069 17.632 108.315 17.184C108.571 16.7253 108.699 16.192 108.699 15.584ZM128.803 8.88V20H126.979V12.384L123.587 20H122.323L118.915 12.384V20H117.091V8.88H119.059L122.963 17.6L126.851 8.88H128.803ZM135.024 20.144C134.192 20.144 133.44 19.9573 132.768 19.584C132.096 19.2 131.568 18.6667 131.184 17.984C130.8 17.2907 130.608 16.4907 130.608 15.584C130.608 14.688 130.805 13.8933 131.2 13.2C131.595 12.5067 132.133 11.9733 132.816 11.6C133.499 11.2267 134.261 11.04 135.104 11.04C135.947 11.04 136.709 11.2267 137.392 11.6C138.075 11.9733 138.613 12.5067 139.008 13.2C139.403 13.8933 139.6 14.688 139.6 15.584C139.6 16.48 139.397 17.2747 138.992 17.968C138.587 18.6613 138.032 19.2 137.328 19.584C136.635 19.9573 135.867 20.144 135.024 20.144ZM135.024 18.56C135.493 18.56 135.931 18.448 136.336 18.224C136.752 18 137.088 17.664 137.344 17.216C137.6 16.768 137.728 16.224 137.728 15.584C137.728 14.944 137.605 14.4053 137.36 13.968C137.115 13.52 136.789 13.184 136.384 12.96C135.979 12.736 135.541 12.624 135.072 12.624C134.603 12.624 134.165 12.736 133.76 12.96C133.365 13.184 133.051 13.52 132.816 13.968C132.581 14.4053 132.464 14.944 132.464 15.584C132.464 16.5333 132.704 17.2693 133.184 17.792C133.675 18.304 134.288 18.56 135.024 18.56ZM143.227 12.496C143.536 12.0693 143.958 11.7227 144.491 11.456C145.035 11.1787 145.638 11.04 146.299 11.04C147.078 11.04 147.782 11.2267 148.411 11.6C149.04 11.9733 149.536 12.5067 149.899 13.2C150.262 13.8827 150.443 14.6667 150.443 15.552C150.443 16.4373 150.262 17.232 149.899 17.936C149.536 18.6293 149.035 19.1733 148.395 19.568C147.766 19.952 147.067 20.144 146.299 20.144C145.616 20.144 145.008 20.0107 144.475 19.744C143.952 19.4773 143.536 19.136 143.227 18.72V20H141.403V8.16H143.227V12.496ZM148.587 15.552C148.587 14.944 148.459 14.4213 148.203 13.984C147.958 13.536 147.627 13.2 147.211 12.976C146.806 12.7413 146.368 12.624 145.899 12.624C145.44 12.624 145.003 12.7413 144.587 12.976C144.182 13.2107 143.851 13.552 143.595 14C143.35 14.448 143.227 14.976 143.227 15.584C143.227 16.192 143.35 16.7253 143.595 17.184C143.851 17.632 144.182 17.9733 144.587 18.208C145.003 18.4427 145.44 18.56 145.899 18.56C146.368 18.56 146.806 18.4427 147.211 18.208C147.627 17.9627 147.958 17.6107 148.203 17.152C148.459 16.6933 148.587 16.16 148.587 15.552ZM153.175 10.016C152.844 10.016 152.567 9.904 152.343 9.68C152.119 9.456 152.007 9.17867 152.007 8.848C152.007 8.51733 152.119 8.24 152.343 8.016C152.567 7.792 152.844 7.68 153.175 7.68C153.495 7.68 153.767 7.792 153.991 8.016C154.215 8.24 154.327 8.51733 154.327 8.848C154.327 9.17867 154.215 9.456 153.991 9.68C153.767 9.904 153.495 10.016 153.175 10.016ZM154.071 11.184V20H152.247V11.184H154.071ZM158.29 8.16V20H156.466V8.16H158.29ZM168.764 15.376C168.764 15.7067 168.743 16.0053 168.7 16.272H161.964C162.018 16.976 162.279 17.5413 162.748 17.968C163.218 18.3947 163.794 18.608 164.476 18.608C165.458 18.608 166.151 18.1973 166.556 17.376H168.524C168.258 18.1867 167.772 18.8533 167.068 19.376C166.375 19.888 165.511 20.144 164.476 20.144C163.634 20.144 162.876 19.9573 162.204 19.584C161.543 19.2 161.02 18.6667 160.636 17.984C160.263 17.2907 160.076 16.4907 160.076 15.584C160.076 14.6773 160.258 13.8827 160.62 13.2C160.994 12.5067 161.511 11.9733 162.172 11.6C162.844 11.2267 163.612 11.04 164.476 11.04C165.308 11.04 166.05 11.2213 166.7 11.584C167.351 11.9467 167.858 12.4587 168.22 13.12C168.583 13.7707 168.764 14.5227 168.764 15.376ZM166.86 14.8C166.85 14.128 166.61 13.5893 166.14 13.184C165.671 12.7787 165.09 12.576 164.396 12.576C163.767 12.576 163.228 12.7787 162.78 13.184C162.332 13.5787 162.066 14.1173 161.98 14.8H166.86ZM173.759 20.144C173.066 20.144 172.442 20.0213 171.887 19.776C171.343 19.52 170.911 19.1787 170.591 18.752C170.271 18.3147 170.101 17.8293 170.079 17.296H171.967C171.999 17.6693 172.175 17.984 172.495 18.24C172.826 18.4853 173.237 18.608 173.727 18.608C174.239 18.608 174.634 18.512 174.911 18.32C175.199 18.1173 175.343 17.8613 175.343 17.552C175.343 17.2213 175.183 16.976 174.863 16.816C174.554 16.656 174.058 16.48 173.375 16.288C172.714 16.1067 172.175 15.9307 171.759 15.76C171.343 15.5893 170.981 15.328 170.671 14.976C170.373 14.624 170.223 14.16 170.223 13.584C170.223 13.1147 170.362 12.688 170.639 12.304C170.917 11.9093 171.311 11.6 171.823 11.376C172.346 11.152 172.943 11.04 173.615 11.04C174.618 11.04 175.423 11.296 176.031 11.808C176.65 12.3093 176.981 12.9973 177.023 13.872H175.199C175.167 13.4773 175.007 13.1627 174.719 12.928C174.431 12.6933 174.042 12.576 173.551 12.576C173.071 12.576 172.703 12.6667 172.447 12.848C172.191 13.0293 172.063 13.2693 172.063 13.568C172.063 13.8027 172.149 14 172.319 14.16C172.49 14.32 172.698 14.448 172.943 14.544C173.189 14.6293 173.551 14.7413 174.031 14.88C174.671 15.0507 175.194 15.2267 175.599 15.408C176.015 15.5787 176.373 15.8347 176.671 16.176C176.97 16.5173 177.125 16.9707 177.135 17.536C177.135 18.0373 176.997 18.4853 176.719 18.88C176.442 19.2747 176.047 19.584 175.535 19.808C175.034 20.032 174.442 20.144 173.759 20.144Z" fill="#262626"/>
</svg>
