<svg width="132" height="28" viewBox="0 0 132 28" fill="none" xmlns="http://www.w3.org/2000/svg">
<path d="M11.25 9.125C11.25 9.94085 11.0081 10.7384 10.5548 11.4167C10.1016 12.0951 9.45731 12.6238 8.70357 12.936C7.94982 13.2482 7.12042 13.3299 6.32025 13.1707C5.52008 13.0116 4.78508 12.6187 4.20819 12.0418C3.63129 11.4649 3.23843 10.7299 3.07926 9.92975C2.9201 9.12958 3.00179 8.30018 3.314 7.54643C3.62621 6.79269 4.15492 6.14845 4.83327 5.69519C5.51163 5.24193 6.30915 5 7.125 5C7.6667 5 8.2031 5.1067 8.70357 5.314C9.20404 5.5213 9.65877 5.82514 10.0418 6.20819C10.4249 6.59123 10.7287 7.04596 10.936 7.54643C11.1433 8.0469 11.25 8.5833 11.25 9.125ZM16.875 13.25C17.6908 13.25 18.4884 13.0081 19.1667 12.5548C19.8451 12.1016 20.3738 11.4573 20.686 10.7036C20.9982 9.94982 21.0799 9.12042 20.9207 8.32025C20.7616 7.52008 20.3687 6.78508 19.7918 6.20819C19.2149 5.63129 18.4799 5.23843 17.6797 5.07926C16.8796 4.9201 16.0502 5.00179 15.2964 5.314C14.5427 5.62621 13.8984 6.15492 13.4452 6.83327C12.9919 7.51163 12.75 8.30915 12.75 9.125C12.75 10.219 13.1846 11.2682 13.9582 12.0418C14.7318 12.8154 15.781 13.25 16.875 13.25ZM7.125 14.75C6.30915 14.75 5.51163 14.9919 4.83327 15.4452C4.15492 15.8984 3.62621 16.5427 3.314 17.2964C3.00179 18.0502 2.9201 18.8796 3.07926 19.6797C3.23843 20.4799 3.63129 21.2149 4.20819 21.7918C4.78508 22.3687 5.52008 22.7616 6.32025 22.9207C7.12042 23.0799 7.94982 22.9982 8.70357 22.686C9.45731 22.3738 10.1016 21.8451 10.5548 21.1667C11.0081 20.4884 11.25 19.6908 11.25 18.875C11.25 18.3333 11.1433 17.7969 10.936 17.2964C10.7287 16.796 10.4249 16.3412 10.0418 15.9582C9.65877 15.5751 9.20404 15.2713 8.70357 15.064C8.2031 14.8567 7.6667 14.75 7.125 14.75ZM16.875 14.75C16.0592 14.75 15.2616 14.9919 14.5833 15.4452C13.9049 15.8984 13.3762 16.5427 13.064 17.2964C12.7518 18.0502 12.6701 18.8796 12.8293 19.6797C12.9884 20.4799 13.3813 21.2149 13.9582 21.7918C14.5351 22.3687 15.2701 22.7616 16.0703 22.9207C16.8704 23.0799 17.6998 22.9982 18.4536 22.686C19.2073 22.3738 19.8515 21.8451 20.3048 21.1667C20.7581 20.4884 21 19.6908 21 18.875C21 17.781 20.5654 16.7318 19.7918 15.9582C19.0182 15.1846 17.969 14.75 16.875 14.75Z" fill="#EE2835"/>
<path d="M48.384 8.88V10.368H45.424V20H43.6V10.368H40.624V8.88H48.384ZM54.0553 20.144C53.2233 20.144 52.4713 19.9573 51.7993 19.584C51.1273 19.2 50.5993 18.6667 50.2153 17.984C49.8313 17.2907 49.6393 16.4907 49.6393 15.584C49.6393 14.688 49.8366 13.8933 50.2313 13.2C50.6259 12.5067 51.1646 11.9733 51.8473 11.6C52.5299 11.2267 53.2926 11.04 54.1353 11.04C54.9779 11.04 55.7406 11.2267 56.4233 11.6C57.1059 11.9733 57.6446 12.5067 58.0393 13.2C58.4339 13.8933 58.6313 14.688 58.6313 15.584C58.6313 16.48 58.4286 17.2747 58.0233 17.968C57.6179 18.6613 57.0633 19.2 56.3593 19.584C55.6659 19.9573 54.8979 20.144 54.0553 20.144ZM54.0553 18.56C54.5246 18.56 54.9619 18.448 55.3673 18.224C55.7833 18 56.1193 17.664 56.3753 17.216C56.6313 16.768 56.7593 16.224 56.7593 15.584C56.7593 14.944 56.6366 14.4053 56.3913 13.968C56.1459 13.52 55.8206 13.184 55.4153 12.96C55.0099 12.736 54.5726 12.624 54.1033 12.624C53.6339 12.624 53.1966 12.736 52.7913 12.96C52.3966 13.184 52.0819 13.52 51.8473 13.968C51.6126 14.4053 51.4953 14.944 51.4953 15.584C51.4953 16.5333 51.7353 17.2693 52.2153 17.792C52.7059 18.304 53.3193 18.56 54.0553 18.56ZM62.2584 12.48C62.5677 12.0747 62.989 11.7333 63.5224 11.456C64.0557 11.1787 64.6584 11.04 65.3304 11.04C66.0984 11.04 66.797 11.232 67.4264 11.616C68.0664 11.9893 68.5677 12.5173 68.9304 13.2C69.293 13.8827 69.4744 14.6667 69.4744 15.552C69.4744 16.4373 69.293 17.232 68.9304 17.936C68.5677 18.6293 68.0664 19.1733 67.4264 19.568C66.797 19.952 66.0984 20.144 65.3304 20.144C64.6584 20.144 64.061 20.0107 63.5384 19.744C63.0157 19.4667 62.589 19.1253 62.2584 18.72V24.192H60.4344V11.184H62.2584V12.48ZM67.6184 15.552C67.6184 14.944 67.4904 14.4213 67.2344 13.984C66.989 13.536 66.6584 13.2 66.2424 12.976C65.837 12.7413 65.3997 12.624 64.9304 12.624C64.4717 12.624 64.0344 12.7413 63.6184 12.976C63.213 13.2107 62.8824 13.552 62.6264 14C62.381 14.448 62.2584 14.976 62.2584 15.584C62.2584 16.192 62.381 16.7253 62.6264 17.184C62.8824 17.632 63.213 17.9733 63.6184 18.208C64.0344 18.4427 64.4717 18.56 64.9304 18.56C65.3997 18.56 65.837 18.4427 66.2424 18.208C66.6584 17.9627 66.989 17.6107 67.2344 17.152C67.4904 16.6933 67.6184 16.16 67.6184 15.552ZM81.3864 14.288C81.9837 14.3947 82.4904 14.7093 82.9064 15.232C83.3224 15.7547 83.5304 16.3467 83.5304 17.008C83.5304 17.5733 83.381 18.0853 83.0824 18.544C82.7944 18.992 82.373 19.3493 81.8184 19.616C81.2637 19.872 80.6184 20 79.8824 20H75.4344V8.88H79.6744C80.4317 8.88 81.0824 9.008 81.6264 9.264C82.1704 9.52 82.581 9.86667 82.8584 10.304C83.1357 10.7307 83.2744 11.2107 83.2744 11.744C83.2744 12.384 83.1037 12.9173 82.7624 13.344C82.421 13.7707 81.9624 14.0853 81.3864 14.288ZM77.2584 13.552H79.5144C80.1117 13.552 80.5757 13.4187 80.9064 13.152C81.2477 12.8747 81.4184 12.48 81.4184 11.968C81.4184 11.4667 81.2477 11.0773 80.9064 10.8C80.5757 10.512 80.1117 10.368 79.5144 10.368H77.2584V13.552ZM79.7224 18.512C80.341 18.512 80.8264 18.3627 81.1784 18.064C81.5304 17.7653 81.7064 17.3493 81.7064 16.816C81.7064 16.272 81.5197 15.84 81.1464 15.52C80.773 15.2 80.277 15.04 79.6584 15.04H77.2584V18.512H79.7224ZM87.3365 12.464C87.6032 12.016 87.9552 11.6693 88.3925 11.424C88.8405 11.168 89.3685 11.04 89.9765 11.04V12.928H89.5125C88.7978 12.928 88.2538 13.1093 87.8805 13.472C87.5178 13.8347 87.3365 14.464 87.3365 15.36V20H85.5125V11.184H87.3365V12.464ZM91.0451 15.552C91.0451 14.6667 91.2265 13.8827 91.5891 13.2C91.9625 12.5173 92.4638 11.9893 93.0931 11.616C93.7331 11.232 94.4371 11.04 95.2051 11.04C95.8985 11.04 96.5011 11.1787 97.0131 11.456C97.5358 11.7227 97.9518 12.0587 98.2611 12.464V11.184H100.101V20H98.2611V18.688C97.9518 19.104 97.5305 19.4507 96.9971 19.728C96.4638 20.0053 95.8558 20.144 95.1731 20.144C94.4158 20.144 93.7225 19.952 93.0931 19.568C92.4638 19.1733 91.9625 18.6293 91.5891 17.936C91.2265 17.232 91.0451 16.4373 91.0451 15.552ZM98.2611 15.584C98.2611 14.976 98.1331 14.448 97.8771 14C97.6318 13.552 97.3065 13.2107 96.9011 12.976C96.4958 12.7413 96.0585 12.624 95.5891 12.624C95.1198 12.624 94.6825 12.7413 94.2771 12.976C93.8718 13.2 93.5411 13.536 93.2851 13.984C93.0398 14.4213 92.9171 14.944 92.9171 15.552C92.9171 16.16 93.0398 16.6933 93.2851 17.152C93.5411 17.6107 93.8718 17.9627 94.2771 18.208C94.6931 18.4427 95.1305 18.56 95.5891 18.56C96.0585 18.56 96.4958 18.4427 96.9011 18.208C97.3065 17.9733 97.6318 17.632 97.8771 17.184C98.1331 16.7253 98.2611 16.192 98.2611 15.584ZM106.945 11.04C107.638 11.04 108.257 11.184 108.801 11.472C109.356 11.76 109.788 12.1867 110.097 12.752C110.406 13.3173 110.561 14 110.561 14.8V20H108.753V15.072C108.753 14.2827 108.556 13.68 108.161 13.264C107.766 12.8373 107.228 12.624 106.545 12.624C105.862 12.624 105.318 12.8373 104.913 13.264C104.518 13.68 104.321 14.2827 104.321 15.072V20H102.497V11.184H104.321V12.192C104.62 11.8293 104.998 11.5467 105.457 11.344C105.926 11.1413 106.422 11.04 106.945 11.04ZM112.28 15.552C112.28 14.6667 112.461 13.8827 112.824 13.2C113.197 12.5173 113.698 11.9893 114.328 11.616C114.968 11.232 115.677 11.04 116.456 11.04C117.032 11.04 117.597 11.168 118.152 11.424C118.717 11.6693 119.165 12 119.496 12.416V8.16H121.336V20H119.496V18.672C119.197 19.0987 118.781 19.4507 118.248 19.728C117.725 20.0053 117.122 20.144 116.44 20.144C115.672 20.144 114.968 19.952 114.328 19.568C113.698 19.1733 113.197 18.6293 112.824 17.936C112.461 17.232 112.28 16.4373 112.28 15.552ZM119.496 15.584C119.496 14.976 119.368 14.448 119.112 14C118.866 13.552 118.541 13.2107 118.136 12.976C117.73 12.7413 117.293 12.624 116.824 12.624C116.354 12.624 115.917 12.7413 115.512 12.976C115.106 13.2 114.776 13.536 114.52 13.984C114.274 14.4213 114.152 14.944 114.152 15.552C114.152 16.16 114.274 16.6933 114.52 17.152C114.776 17.6107 115.106 17.9627 115.512 18.208C115.928 18.4427 116.365 18.56 116.824 18.56C117.293 18.56 117.73 18.4427 118.136 18.208C118.541 17.9733 118.866 17.632 119.112 17.184C119.368 16.7253 119.496 16.192 119.496 15.584ZM126.931 20.144C126.238 20.144 125.614 20.0213 125.059 19.776C124.515 19.52 124.083 19.1787 123.763 18.752C123.443 18.3147 123.273 17.8293 123.251 17.296H125.139C125.171 17.6693 125.347 17.984 125.667 18.24C125.998 18.4853 126.409 18.608 126.899 18.608C127.411 18.608 127.806 18.512 128.083 18.32C128.371 18.1173 128.515 17.8613 128.515 17.552C128.515 17.2213 128.355 16.976 128.035 16.816C127.726 16.656 127.23 16.48 126.547 16.288C125.886 16.1067 125.347 15.9307 124.931 15.76C124.515 15.5893 124.153 15.328 123.843 14.976C123.545 14.624 123.395 14.16 123.395 13.584C123.395 13.1147 123.534 12.688 123.811 12.304C124.089 11.9093 124.483 11.6 124.995 11.376C125.518 11.152 126.115 11.04 126.787 11.04C127.79 11.04 128.595 11.296 129.203 11.808C129.822 12.3093 130.153 12.9973 130.195 13.872H128.371C128.339 13.4773 128.179 13.1627 127.891 12.928C127.603 12.6933 127.214 12.576 126.723 12.576C126.243 12.576 125.875 12.6667 125.619 12.848C125.363 13.0293 125.235 13.2693 125.235 13.568C125.235 13.8027 125.321 14 125.491 14.16C125.662 14.32 125.87 14.448 126.115 14.544C126.361 14.6293 126.723 14.7413 127.203 14.88C127.843 15.0507 128.366 15.2267 128.771 15.408C129.187 15.5787 129.545 15.8347 129.843 16.176C130.142 16.5173 130.297 16.9707 130.307 17.536C130.307 18.0373 130.169 18.4853 129.891 18.88C129.614 19.2747 129.219 19.584 128.707 19.808C128.206 20.032 127.614 20.144 126.931 20.144Z" fill="#EE2835"/>
</svg>
