<svg width="172" height="28" viewBox="0 0 172 28" fill="none" xmlns="http://www.w3.org/2000/svg">
<path d="M21.7337 20.1017L18.0992 23.7386C17.9247 23.9054 17.693 23.999 17.4518 24C17.3312 23.9995 17.2117 23.9763 17.0997 23.9318C16.9343 23.8622 16.7932 23.7453 16.6942 23.5956C16.5951 23.4459 16.5426 23.2703 16.5431 23.0908V20.3631H2.91374C2.67275 20.3631 2.44164 20.2673 2.27124 20.0968C2.10084 19.9263 2.00511 19.695 2.00511 19.4539C2.00511 19.2127 2.10084 18.9815 2.27124 18.811C2.44164 18.6404 2.67275 18.5447 2.91374 18.5447H16.5431V15.817C16.5426 15.6375 16.5951 15.4618 16.6942 15.3122C16.7932 15.1625 16.9343 15.0455 17.0997 14.976C17.2675 14.9104 17.4504 14.8938 17.6273 14.928C17.8042 14.9622 17.9678 15.0458 18.0992 15.1692L21.7337 18.8061C21.9043 18.9784 22 19.2113 22 19.4539C22 19.6965 21.9043 19.9293 21.7337 20.1017ZM5.90085 12.8279C6.07526 12.9947 6.30697 13.0883 6.54824 13.0893C6.66883 13.0888 6.78826 13.0657 6.90034 13.0211C7.06571 12.9516 7.2068 12.8346 7.30584 12.6849C7.40488 12.5352 7.45743 12.3596 7.45687 12.1801V9.45241H21.0863C21.3272 9.45241 21.5584 9.35662 21.7288 9.18611C21.8992 9.0156 21.9949 8.78433 21.9949 8.54319C21.9949 8.30205 21.8992 8.07079 21.7288 7.90027C21.5584 7.72976 21.3272 7.63397 21.0863 7.63397H7.45687V4.90629C7.45743 4.72679 7.40488 4.55114 7.30584 4.40147C7.2068 4.2518 7.06571 4.13482 6.90034 4.06526C6.7325 3.99976 6.54956 3.98314 6.37269 4.01733C6.19581 4.05152 6.03222 4.13513 5.90085 4.25847L2.26634 7.89537C2.09572 8.06775 2 8.30057 2 8.54319C2 8.78581 2.09572 9.01863 2.26634 9.19101L5.90085 12.8279Z" fill="#262626"/>
<path d="M40.592 14.416C40.592 13.328 40.8427 12.352 41.344 11.488C41.856 10.624 42.544 9.952 43.408 9.472C44.2827 8.98133 45.2373 8.736 46.272 8.736C47.456 8.736 48.5067 9.02933 49.424 9.616C50.352 10.192 51.024 11.0133 51.44 12.08H49.248C48.96 11.4933 48.56 11.056 48.048 10.768C47.536 10.48 46.944 10.336 46.272 10.336C45.536 10.336 44.88 10.5013 44.304 10.832C43.728 11.1627 43.2747 11.6373 42.944 12.256C42.624 12.8747 42.464 13.5947 42.464 14.416C42.464 15.2373 42.624 15.9573 42.944 16.576C43.2747 17.1947 43.728 17.6747 44.304 18.016C44.88 18.3467 45.536 18.512 46.272 18.512C46.944 18.512 47.536 18.368 48.048 18.08C48.56 17.792 48.96 17.3547 49.248 16.768H51.44C51.024 17.8347 50.352 18.656 49.424 19.232C48.5067 19.808 47.456 20.096 46.272 20.096C45.2267 20.096 44.272 19.856 43.408 19.376C42.544 18.8853 41.856 18.208 41.344 17.344C40.8427 16.48 40.592 15.504 40.592 14.416ZM57.399 20.144C56.567 20.144 55.815 19.9573 55.143 19.584C54.471 19.2 53.943 18.6667 53.559 17.984C53.175 17.2907 52.983 16.4907 52.983 15.584C52.983 14.688 53.1803 13.8933 53.575 13.2C53.9697 12.5067 54.5083 11.9733 55.191 11.6C55.8737 11.2267 56.6363 11.04 57.479 11.04C58.3217 11.04 59.0843 11.2267 59.767 11.6C60.4497 11.9733 60.9883 12.5067 61.383 13.2C61.7777 13.8933 61.975 14.688 61.975 15.584C61.975 16.48 61.7723 17.2747 61.367 17.968C60.9617 18.6613 60.407 19.2 59.703 19.584C59.0097 19.9573 58.2417 20.144 57.399 20.144ZM57.399 18.56C57.8683 18.56 58.3057 18.448 58.711 18.224C59.127 18 59.463 17.664 59.719 17.216C59.975 16.768 60.103 16.224 60.103 15.584C60.103 14.944 59.9803 14.4053 59.735 13.968C59.4897 13.52 59.1643 13.184 58.759 12.96C58.3537 12.736 57.9163 12.624 57.447 12.624C56.9777 12.624 56.5403 12.736 56.135 12.96C55.7403 13.184 55.4257 13.52 55.191 13.968C54.9563 14.4053 54.839 14.944 54.839 15.584C54.839 16.5333 55.079 17.2693 55.559 17.792C56.0497 18.304 56.663 18.56 57.399 18.56ZM74.4501 11.04C75.1435 11.04 75.7621 11.184 76.3061 11.472C76.8608 11.76 77.2928 12.1867 77.6021 12.752C77.9221 13.3173 78.0821 14 78.0821 14.8V20H76.2741V15.072C76.2741 14.2827 76.0768 13.68 75.6821 13.264C75.2875 12.8373 74.7488 12.624 74.0661 12.624C73.3835 12.624 72.8395 12.8373 72.4341 13.264C72.0395 13.68 71.8421 14.2827 71.8421 15.072V20H70.0341V15.072C70.0341 14.2827 69.8368 13.68 69.4421 13.264C69.0475 12.8373 68.5088 12.624 67.8261 12.624C67.1435 12.624 66.5995 12.8373 66.1941 13.264C65.7995 13.68 65.6021 14.2827 65.6021 15.072V20H63.7781V11.184H65.6021V12.192C65.9008 11.8293 66.2795 11.5467 66.7381 11.344C67.1968 11.1413 67.6875 11.04 68.2101 11.04C68.9141 11.04 69.5435 11.1893 70.0981 11.488C70.6528 11.7867 71.0795 12.2187 71.3781 12.784C71.6448 12.2507 72.0608 11.8293 72.6261 11.52C73.1915 11.2 73.7995 11.04 74.4501 11.04ZM82.2271 12.48C82.5365 12.0747 82.9578 11.7333 83.4911 11.456C84.0245 11.1787 84.6271 11.04 85.2991 11.04C86.0671 11.04 86.7658 11.232 87.3951 11.616C88.0351 11.9893 88.5365 12.5173 88.8991 13.2C89.2618 13.8827 89.4431 14.6667 89.4431 15.552C89.4431 16.4373 89.2618 17.232 88.8991 17.936C88.5365 18.6293 88.0351 19.1733 87.3951 19.568C86.7658 19.952 86.0671 20.144 85.2991 20.144C84.6271 20.144 84.0298 20.0107 83.5071 19.744C82.9845 19.4667 82.5578 19.1253 82.2271 18.72V24.192H80.4031V11.184H82.2271V12.48ZM87.5871 15.552C87.5871 14.944 87.4591 14.4213 87.2031 13.984C86.9578 13.536 86.6271 13.2 86.2111 12.976C85.8058 12.7413 85.3685 12.624 84.8991 12.624C84.4405 12.624 84.0031 12.7413 83.5871 12.976C83.1818 13.2107 82.8511 13.552 82.5951 14C82.3498 14.448 82.2271 14.976 82.2271 15.584C82.2271 16.192 82.3498 16.7253 82.5951 17.184C82.8511 17.632 83.1818 17.9733 83.5871 18.208C84.0031 18.4427 84.4405 18.56 84.8991 18.56C85.3685 18.56 85.8058 18.4427 86.2111 18.208C86.6271 17.9627 86.9578 17.6107 87.2031 17.152C87.4591 16.6933 87.5871 16.16 87.5871 15.552ZM90.6389 15.552C90.6389 14.6667 90.8202 13.8827 91.1829 13.2C91.5562 12.5173 92.0575 11.9893 92.6869 11.616C93.3269 11.232 94.0309 11.04 94.7989 11.04C95.4922 11.04 96.0949 11.1787 96.6069 11.456C97.1295 11.7227 97.5455 12.0587 97.8549 12.464V11.184H99.6949V20H97.8549V18.688C97.5455 19.104 97.1242 19.4507 96.5909 19.728C96.0575 20.0053 95.4495 20.144 94.7669 20.144C94.0095 20.144 93.3162 19.952 92.6869 19.568C92.0575 19.1733 91.5562 18.6293 91.1829 17.936C90.8202 17.232 90.6389 16.4373 90.6389 15.552ZM97.8549 15.584C97.8549 14.976 97.7269 14.448 97.4709 14C97.2255 13.552 96.9002 13.2107 96.4949 12.976C96.0895 12.7413 95.6522 12.624 95.1829 12.624C94.7135 12.624 94.2762 12.7413 93.8709 12.976C93.4655 13.2 93.1349 13.536 92.8789 13.984C92.6335 14.4213 92.5109 14.944 92.5109 15.552C92.5109 16.16 92.6335 16.6933 92.8789 17.152C93.1349 17.6107 93.4655 17.9627 93.8709 18.208C94.2869 18.4427 94.7242 18.56 95.1829 18.56C95.6522 18.56 96.0895 18.4427 96.4949 18.208C96.9002 17.9733 97.2255 17.632 97.4709 17.184C97.7269 16.7253 97.8549 16.192 97.8549 15.584ZM103.915 12.464C104.181 12.016 104.533 11.6693 104.971 11.424C105.419 11.168 105.947 11.04 106.555 11.04V12.928H106.091C105.376 12.928 104.832 13.1093 104.459 13.472C104.096 13.8347 103.915 14.464 103.915 15.36V20H102.091V11.184H103.915V12.464ZM116.311 15.376C116.311 15.7067 116.29 16.0053 116.247 16.272H109.511C109.565 16.976 109.826 17.5413 110.295 17.968C110.765 18.3947 111.341 18.608 112.023 18.608C113.005 18.608 113.698 18.1973 114.103 17.376H116.071C115.805 18.1867 115.319 18.8533 114.615 19.376C113.922 19.888 113.058 20.144 112.023 20.144C111.181 20.144 110.423 19.9573 109.751 19.584C109.09 19.2 108.567 18.6667 108.183 17.984C107.81 17.2907 107.623 16.4907 107.623 15.584C107.623 14.6773 107.805 13.8827 108.167 13.2C108.541 12.5067 109.058 11.9733 109.719 11.6C110.391 11.2267 111.159 11.04 112.023 11.04C112.855 11.04 113.597 11.2213 114.247 11.584C114.898 11.9467 115.405 12.4587 115.767 13.12C116.13 13.7707 116.311 14.5227 116.311 15.376ZM114.407 14.8C114.397 14.128 114.157 13.5893 113.687 13.184C113.218 12.7787 112.637 12.576 111.943 12.576C111.314 12.576 110.775 12.7787 110.327 13.184C109.879 13.5787 109.613 14.1173 109.527 14.8H114.407ZM130.039 12.192C130.039 12.7573 129.905 13.2907 129.639 13.792C129.372 14.2933 128.945 14.704 128.359 15.024C127.772 15.3333 127.02 15.488 126.103 15.488H124.087V20H122.263V8.88H126.103C126.956 8.88 127.676 9.02933 128.263 9.328C128.86 9.616 129.303 10.0107 129.591 10.512C129.889 11.0133 130.039 11.5733 130.039 12.192ZM126.103 14C126.796 14 127.313 13.8453 127.655 13.536C127.996 13.216 128.167 12.768 128.167 12.192C128.167 10.976 127.479 10.368 126.103 10.368H124.087V14H126.103ZM136.338 11.04C137.01 11.04 137.607 11.184 138.13 11.472C138.663 11.76 139.079 12.1867 139.378 12.752C139.687 13.3173 139.842 14 139.842 14.8V20H138.034V15.072C138.034 14.2827 137.837 13.68 137.442 13.264C137.047 12.8373 136.509 12.624 135.826 12.624C135.143 12.624 134.599 12.8373 134.194 13.264C133.799 13.68 133.602 14.2827 133.602 15.072V20H131.778V8.16H133.602V12.208C133.911 11.8347 134.301 11.5467 134.77 11.344C135.25 11.1413 135.773 11.04 136.338 11.04ZM145.993 20.144C145.161 20.144 144.409 19.9573 143.737 19.584C143.065 19.2 142.537 18.6667 142.153 17.984C141.769 17.2907 141.577 16.4907 141.577 15.584C141.577 14.688 141.774 13.8933 142.169 13.2C142.563 12.5067 143.102 11.9733 143.785 11.6C144.467 11.2267 145.23 11.04 146.073 11.04C146.915 11.04 147.678 11.2267 148.361 11.6C149.043 11.9733 149.582 12.5067 149.977 13.2C150.371 13.8933 150.569 14.688 150.569 15.584C150.569 16.48 150.366 17.2747 149.961 17.968C149.555 18.6613 149.001 19.2 148.297 19.584C147.603 19.9573 146.835 20.144 145.993 20.144ZM145.993 18.56C146.462 18.56 146.899 18.448 147.305 18.224C147.721 18 148.057 17.664 148.313 17.216C148.569 16.768 148.697 16.224 148.697 15.584C148.697 14.944 148.574 14.4053 148.329 13.968C148.083 13.52 147.758 13.184 147.353 12.96C146.947 12.736 146.51 12.624 146.041 12.624C145.571 12.624 145.134 12.736 144.729 12.96C144.334 13.184 144.019 13.52 143.785 13.968C143.55 14.4053 143.433 14.944 143.433 15.584C143.433 16.5333 143.673 17.2693 144.153 17.792C144.643 18.304 145.257 18.56 145.993 18.56ZM156.82 11.04C157.513 11.04 158.132 11.184 158.676 11.472C159.231 11.76 159.663 12.1867 159.972 12.752C160.281 13.3173 160.436 14 160.436 14.8V20H158.628V15.072C158.628 14.2827 158.431 13.68 158.036 13.264C157.641 12.8373 157.103 12.624 156.42 12.624C155.737 12.624 155.193 12.8373 154.788 13.264C154.393 13.68 154.196 14.2827 154.196 15.072V20H152.372V11.184H154.196V12.192C154.495 11.8293 154.873 11.5467 155.332 11.344C155.801 11.1413 156.297 11.04 156.82 11.04ZM170.843 15.376C170.843 15.7067 170.821 16.0053 170.779 16.272H164.043C164.096 16.976 164.357 17.5413 164.827 17.968C165.296 18.3947 165.872 18.608 166.555 18.608C167.536 18.608 168.229 18.1973 168.635 17.376H170.602C170.336 18.1867 169.851 18.8533 169.147 19.376C168.453 19.888 167.589 20.144 166.555 20.144C165.712 20.144 164.955 19.9573 164.283 19.584C163.621 19.2 163.099 18.6667 162.715 17.984C162.341 17.2907 162.155 16.4907 162.155 15.584C162.155 14.6773 162.336 13.8827 162.699 13.2C163.072 12.5067 163.589 11.9733 164.251 11.6C164.923 11.2267 165.691 11.04 166.555 11.04C167.387 11.04 168.128 11.2213 168.779 11.584C169.429 11.9467 169.936 12.4587 170.299 13.12C170.661 13.7707 170.843 14.5227 170.843 15.376ZM168.939 14.8C168.928 14.128 168.688 13.5893 168.219 13.184C167.749 12.7787 167.168 12.576 166.475 12.576C165.845 12.576 165.307 12.7787 164.859 13.184C164.411 13.5787 164.144 14.1173 164.059 14.8H168.939Z" fill="#262626"/>
</svg>
