<svg width="24" height="24" viewBox="0 0 24 24" fill="none" xmlns="http://www.w3.org/2000/svg">
<path d="M11.25 7.125C11.25 7.94085 11.0081 8.73838 10.5548 9.41673C10.1016 10.0951 9.45731 10.6238 8.70357 10.936C7.94982 11.2482 7.12042 11.3299 6.32025 11.1707C5.52008 11.0116 4.78508 10.6187 4.20819 10.0418C3.63129 9.46492 3.23843 8.72992 3.07926 7.92975C2.9201 7.12958 3.00179 6.30018 3.314 5.54643C3.62621 4.79269 4.15492 4.14845 4.83327 3.69519C5.51163 3.24193 6.30915 3 7.125 3C7.6667 3 8.2031 3.1067 8.70357 3.314C9.20404 3.5213 9.65877 3.82514 10.0418 4.20819C10.4249 4.59123 10.7287 5.04596 10.936 5.54643C11.1433 6.0469 11.25 6.5833 11.25 7.125ZM16.875 11.25C17.6908 11.25 18.4884 11.0081 19.1667 10.5548C19.8451 10.1016 20.3738 9.45731 20.686 8.70357C20.9982 7.94982 21.0799 7.12042 20.9207 6.32025C20.7616 5.52008 20.3687 4.78508 19.7918 4.20819C19.2149 3.63129 18.4799 3.23843 17.6797 3.07926C16.8796 2.9201 16.0502 3.00179 15.2964 3.314C14.5427 3.62621 13.8984 4.15492 13.4452 4.83327C12.9919 5.51163 12.75 6.30915 12.75 7.125C12.75 8.21902 13.1846 9.26823 13.9582 10.0418C14.7318 10.8154 15.781 11.25 16.875 11.25ZM7.125 12.75C6.30915 12.75 5.51163 12.9919 4.83327 13.4452C4.15492 13.8984 3.62621 14.5427 3.314 15.2964C3.00179 16.0502 2.9201 16.8796 3.07926 17.6797C3.23843 18.4799 3.63129 19.2149 4.20819 19.7918C4.78508 20.3687 5.52008 20.7616 6.32025 20.9207C7.12042 21.0799 7.94982 20.9982 8.70357 20.686C9.45731 20.3738 10.1016 19.8451 10.5548 19.1667C11.0081 18.4884 11.25 17.6908 11.25 16.875C11.25 16.3333 11.1433 15.7969 10.936 15.2964C10.7287 14.796 10.4249 14.3412 10.0418 13.9582C9.65877 13.5751 9.20404 13.2713 8.70357 13.064C8.2031 12.8567 7.6667 12.75 7.125 12.75ZM16.875 12.75C16.0592 12.75 15.2616 12.9919 14.5833 13.4452C13.9049 13.8984 13.3762 14.5427 13.064 15.2964C12.7518 16.0502 12.6701 16.8796 12.8293 17.6797C12.9884 18.4799 13.3813 19.2149 13.9582 19.7918C14.5351 20.3687 15.2701 20.7616 16.0703 20.9207C16.8704 21.0799 17.6998 20.9982 18.4536 20.686C19.2073 20.3738 19.8515 19.8451 20.3048 19.1667C20.7581 18.4884 21 17.6908 21 16.875C21 15.781 20.5654 14.7318 19.7918 13.9582C19.0182 13.1846 17.969 12.75 16.875 12.75Z" fill="#EE2835"/>
</svg>
