<svg width="190" height="28" viewBox="0 0 190 28" fill="none" xmlns="http://www.w3.org/2000/svg">
<path d="M16.5 2H6.5C5.8378 2.00282 5.20351 2.27464 4.73526 2.75627C4.26701 3.2379 4.00274 3.89031 4 4.57143V23.4286C4.00274 24.1097 4.26701 24.7621 4.73526 25.2437C5.20351 25.7254 5.8378 25.9972 6.5 26H16.5C17.1622 25.9972 17.7965 25.7254 18.2647 25.2437C18.733 24.7621 18.9973 24.1097 19 23.4286V4.57143C18.9973 3.89031 18.733 3.2379 18.2647 2.75627C17.7965 2.27464 17.1622 2.00282 16.5 2ZM11.5 8C11.2528 8 11.0111 7.92459 10.8055 7.78332C10.6 7.64204 10.4398 7.44124 10.3452 7.20631C10.2505 6.97137 10.2258 6.71286 10.274 6.46346C10.3222 6.21405 10.4413 5.98496 10.6161 5.80515C10.7909 5.62534 11.0137 5.50289 11.2561 5.45328C11.4986 5.40367 11.7499 5.42913 11.9784 5.52644C12.2068 5.62375 12.402 5.78855 12.5393 5.99998C12.6767 6.21142 12.75 6.46 12.75 6.71429C12.75 7.05528 12.6183 7.38231 12.3839 7.62342C12.1495 7.86454 11.8315 8 11.5 8Z" fill="#262626"/>
<path d="M43.008 8.88V15.968C43.008 16.8107 43.2267 17.4453 43.664 17.872C44.112 18.2987 44.7307 18.512 45.52 18.512C46.32 18.512 46.9387 18.2987 47.376 17.872C47.824 17.4453 48.048 16.8107 48.048 15.968V8.88H49.872V15.936C49.872 16.8427 49.6747 17.6107 49.28 18.24C48.8853 18.8693 48.3573 19.3387 47.696 19.648C47.0347 19.9573 46.304 20.112 45.504 20.112C44.704 20.112 43.9733 19.9573 43.312 19.648C42.6613 19.3387 42.144 18.8693 41.76 18.24C41.376 17.6107 41.184 16.8427 41.184 15.936V8.88H43.008ZM54.0709 12.48C54.3802 12.0747 54.8015 11.7333 55.3349 11.456C55.8682 11.1787 56.4709 11.04 57.1429 11.04C57.9109 11.04 58.6095 11.232 59.2389 11.616C59.8789 11.9893 60.3802 12.5173 60.7429 13.2C61.1055 13.8827 61.2869 14.6667 61.2869 15.552C61.2869 16.4373 61.1055 17.232 60.7429 17.936C60.3802 18.6293 59.8789 19.1733 59.2389 19.568C58.6095 19.952 57.9109 20.144 57.1429 20.144C56.4709 20.144 55.8735 20.0107 55.3509 19.744C54.8282 19.4667 54.4015 19.1253 54.0709 18.72V24.192H52.2469V11.184H54.0709V12.48ZM59.4309 15.552C59.4309 14.944 59.3029 14.4213 59.0469 13.984C58.8015 13.536 58.4709 13.2 58.0549 12.976C57.6495 12.7413 57.2122 12.624 56.7429 12.624C56.2842 12.624 55.8469 12.7413 55.4309 12.976C55.0255 13.2107 54.6949 13.552 54.4389 14C54.1935 14.448 54.0709 14.976 54.0709 15.584C54.0709 16.192 54.1935 16.7253 54.4389 17.184C54.6949 17.632 55.0255 17.9733 55.4309 18.208C55.8469 18.4427 56.2842 18.56 56.7429 18.56C57.2122 18.56 57.6495 18.4427 58.0549 18.208C58.4709 17.9627 58.8015 17.6107 59.0469 17.152C59.3029 16.6933 59.4309 16.16 59.4309 15.552ZM62.4826 15.584C62.4826 14.6773 62.664 13.8827 63.0266 13.2C63.4 12.5067 63.912 11.9733 64.5626 11.6C65.2133 11.2267 65.96 11.04 66.8026 11.04C67.8693 11.04 68.7493 11.296 69.4426 11.808C70.1466 12.3093 70.6213 13.0293 70.8666 13.968H68.8986C68.7386 13.5307 68.4826 13.1893 68.1306 12.944C67.7786 12.6987 67.336 12.576 66.8026 12.576C66.056 12.576 65.4586 12.8427 65.0106 13.376C64.5733 13.8987 64.3546 14.6347 64.3546 15.584C64.3546 16.5333 64.5733 17.2747 65.0106 17.808C65.4586 18.3413 66.056 18.608 66.8026 18.608C67.8586 18.608 68.5573 18.144 68.8986 17.216H70.8666C70.6106 18.112 70.1306 18.8267 69.4266 19.36C68.7226 19.8827 67.848 20.144 66.8026 20.144C65.96 20.144 65.2133 19.9573 64.5626 19.584C63.912 19.2 63.4 18.6667 63.0266 17.984C62.664 17.2907 62.4826 16.4907 62.4826 15.584ZM76.5084 20.144C75.6764 20.144 74.9244 19.9573 74.2524 19.584C73.5804 19.2 73.0524 18.6667 72.6684 17.984C72.2844 17.2907 72.0924 16.4907 72.0924 15.584C72.0924 14.688 72.2897 13.8933 72.6844 13.2C73.079 12.5067 73.6177 11.9733 74.3004 11.6C74.983 11.2267 75.7457 11.04 76.5884 11.04C77.431 11.04 78.1937 11.2267 78.8764 11.6C79.559 11.9733 80.0977 12.5067 80.4924 13.2C80.887 13.8933 81.0844 14.688 81.0844 15.584C81.0844 16.48 80.8817 17.2747 80.4764 17.968C80.071 18.6613 79.5164 19.2 78.8124 19.584C78.119 19.9573 77.351 20.144 76.5084 20.144ZM76.5084 18.56C76.9777 18.56 77.415 18.448 77.8204 18.224C78.2364 18 78.5724 17.664 78.8284 17.216C79.0844 16.768 79.2124 16.224 79.2124 15.584C79.2124 14.944 79.0897 14.4053 78.8444 13.968C78.599 13.52 78.2737 13.184 77.8684 12.96C77.463 12.736 77.0257 12.624 76.5564 12.624C76.087 12.624 75.6497 12.736 75.2444 12.96C74.8497 13.184 74.535 13.52 74.3004 13.968C74.0657 14.4053 73.9484 14.944 73.9484 15.584C73.9484 16.5333 74.1884 17.2693 74.6684 17.792C75.159 18.304 75.7724 18.56 76.5084 18.56ZM93.5595 11.04C94.2528 11.04 94.8715 11.184 95.4155 11.472C95.9702 11.76 96.4022 12.1867 96.7115 12.752C97.0315 13.3173 97.1915 14 97.1915 14.8V20H95.3835V15.072C95.3835 14.2827 95.1862 13.68 94.7915 13.264C94.3968 12.8373 93.8582 12.624 93.1755 12.624C92.4928 12.624 91.9488 12.8373 91.5435 13.264C91.1488 13.68 90.9515 14.2827 90.9515 15.072V20H89.1435V15.072C89.1435 14.2827 88.9462 13.68 88.5515 13.264C88.1568 12.8373 87.6182 12.624 86.9355 12.624C86.2528 12.624 85.7088 12.8373 85.3035 13.264C84.9088 13.68 84.7115 14.2827 84.7115 15.072V20H82.8875V11.184H84.7115V12.192C85.0102 11.8293 85.3888 11.5467 85.8475 11.344C86.3062 11.1413 86.7968 11.04 87.3195 11.04C88.0235 11.04 88.6528 11.1893 89.2075 11.488C89.7622 11.7867 90.1888 12.2187 90.4875 12.784C90.7542 12.2507 91.1702 11.8293 91.7355 11.52C92.3008 11.2 92.9088 11.04 93.5595 11.04ZM100.441 10.016C100.11 10.016 99.8325 9.904 99.6085 9.68C99.3845 9.456 99.2725 9.17867 99.2725 8.848C99.2725 8.51733 99.3845 8.24 99.6085 8.016C99.8325 7.792 100.11 7.68 100.441 7.68C100.761 7.68 101.033 7.792 101.257 8.016C101.481 8.24 101.593 8.51733 101.593 8.848C101.593 9.17867 101.481 9.456 101.257 9.68C101.033 9.904 100.761 10.016 100.441 10.016ZM101.337 11.184V20H99.5125V11.184H101.337ZM108.179 11.04C108.873 11.04 109.491 11.184 110.035 11.472C110.59 11.76 111.022 12.1867 111.331 12.752C111.641 13.3173 111.795 14 111.795 14.8V20H109.987V15.072C109.987 14.2827 109.79 13.68 109.395 13.264C109.001 12.8373 108.462 12.624 107.779 12.624C107.097 12.624 106.553 12.8373 106.147 13.264C105.753 13.68 105.555 14.2827 105.555 15.072V20H103.731V11.184H105.555V12.192C105.854 11.8293 106.233 11.5467 106.691 11.344C107.161 11.1413 107.657 11.04 108.179 11.04ZM117.674 11.04C118.357 11.04 118.959 11.1787 119.482 11.456C120.015 11.7227 120.431 12.0587 120.73 12.464V11.184H122.57V20.144C122.57 20.9547 122.399 21.6747 122.058 22.304C121.717 22.944 121.221 23.4453 120.57 23.808C119.93 24.1707 119.162 24.352 118.266 24.352C117.071 24.352 116.079 24.0693 115.29 23.504C114.501 22.9493 114.053 22.192 113.946 21.232H115.754C115.893 21.6907 116.186 22.0587 116.634 22.336C117.093 22.624 117.637 22.768 118.266 22.768C119.002 22.768 119.594 22.544 120.042 22.096C120.501 21.648 120.73 20.9973 120.73 20.144V18.672C120.421 19.088 119.999 19.44 119.466 19.728C118.943 20.0053 118.346 20.144 117.674 20.144C116.906 20.144 116.202 19.952 115.562 19.568C114.933 19.1733 114.431 18.6293 114.058 17.936C113.695 17.232 113.514 16.4373 113.514 15.552C113.514 14.6667 113.695 13.8827 114.058 13.2C114.431 12.5173 114.933 11.9893 115.562 11.616C116.202 11.232 116.906 11.04 117.674 11.04ZM120.73 15.584C120.73 14.976 120.602 14.448 120.346 14C120.101 13.552 119.775 13.2107 119.37 12.976C118.965 12.7413 118.527 12.624 118.058 12.624C117.589 12.624 117.151 12.7413 116.746 12.976C116.341 13.2 116.01 13.536 115.754 13.984C115.509 14.4213 115.386 14.944 115.386 15.552C115.386 16.16 115.509 16.6933 115.754 17.152C116.01 17.6107 116.341 17.9627 116.746 18.208C117.162 18.4427 117.599 18.56 118.058 18.56C118.527 18.56 118.965 18.4427 119.37 18.208C119.775 17.9733 120.101 17.632 120.346 17.184C120.602 16.7253 120.73 16.192 120.73 15.584ZM140.834 8.88V20H139.01V12.384L135.618 20H134.354L130.946 12.384V20H129.122V8.88H131.09L134.994 17.6L138.882 8.88H140.834ZM147.055 20.144C146.223 20.144 145.471 19.9573 144.799 19.584C144.127 19.2 143.599 18.6667 143.215 17.984C142.831 17.2907 142.639 16.4907 142.639 15.584C142.639 14.688 142.837 13.8933 143.231 13.2C143.626 12.5067 144.165 11.9733 144.847 11.6C145.53 11.2267 146.293 11.04 147.135 11.04C147.978 11.04 148.741 11.2267 149.423 11.6C150.106 11.9733 150.645 12.5067 151.039 13.2C151.434 13.8933 151.631 14.688 151.631 15.584C151.631 16.48 151.429 17.2747 151.023 17.968C150.618 18.6613 150.063 19.2 149.359 19.584C148.666 19.9573 147.898 20.144 147.055 20.144ZM147.055 18.56C147.525 18.56 147.962 18.448 148.367 18.224C148.783 18 149.119 17.664 149.375 17.216C149.631 16.768 149.759 16.224 149.759 15.584C149.759 14.944 149.637 14.4053 149.391 13.968C149.146 13.52 148.821 13.184 148.415 12.96C148.01 12.736 147.573 12.624 147.103 12.624C146.634 12.624 146.197 12.736 145.791 12.96C145.397 13.184 145.082 13.52 144.847 13.968C144.613 14.4053 144.495 14.944 144.495 15.584C144.495 16.5333 144.735 17.2693 145.215 17.792C145.706 18.304 146.319 18.56 147.055 18.56ZM155.258 12.496C155.568 12.0693 155.989 11.7227 156.522 11.456C157.066 11.1787 157.669 11.04 158.33 11.04C159.109 11.04 159.813 11.2267 160.442 11.6C161.072 11.9733 161.568 12.5067 161.93 13.2C162.293 13.8827 162.474 14.6667 162.474 15.552C162.474 16.4373 162.293 17.232 161.93 17.936C161.568 18.6293 161.066 19.1733 160.426 19.568C159.797 19.952 159.098 20.144 158.33 20.144C157.648 20.144 157.04 20.0107 156.506 19.744C155.984 19.4773 155.568 19.136 155.258 18.72V20H153.434V8.16H155.258V12.496ZM160.618 15.552C160.618 14.944 160.49 14.4213 160.234 13.984C159.989 13.536 159.658 13.2 159.242 12.976C158.837 12.7413 158.4 12.624 157.93 12.624C157.472 12.624 157.034 12.7413 156.618 12.976C156.213 13.2107 155.882 13.552 155.626 14C155.381 14.448 155.258 14.976 155.258 15.584C155.258 16.192 155.381 16.7253 155.626 17.184C155.882 17.632 156.213 17.9733 156.618 18.208C157.034 18.4427 157.472 18.56 157.93 18.56C158.4 18.56 158.837 18.4427 159.242 18.208C159.658 17.9627 159.989 17.6107 160.234 17.152C160.49 16.6933 160.618 16.16 160.618 15.552ZM165.206 10.016C164.875 10.016 164.598 9.904 164.374 9.68C164.15 9.456 164.038 9.17867 164.038 8.848C164.038 8.51733 164.15 8.24 164.374 8.016C164.598 7.792 164.875 7.68 165.206 7.68C165.526 7.68 165.798 7.792 166.022 8.016C166.246 8.24 166.358 8.51733 166.358 8.848C166.358 9.17867 166.246 9.456 166.022 9.68C165.798 9.904 165.526 10.016 165.206 10.016ZM166.102 11.184V20H164.278V11.184H166.102ZM170.321 8.16V20H168.497V8.16H170.321ZM180.796 15.376C180.796 15.7067 180.774 16.0053 180.732 16.272H173.996C174.049 16.976 174.31 17.5413 174.78 17.968C175.249 18.3947 175.825 18.608 176.508 18.608C177.489 18.608 178.182 18.1973 178.588 17.376H180.556C180.289 18.1867 179.804 18.8533 179.1 19.376C178.406 19.888 177.542 20.144 176.508 20.144C175.665 20.144 174.908 19.9573 174.236 19.584C173.574 19.2 173.052 18.6667 172.668 17.984C172.294 17.2907 172.108 16.4907 172.108 15.584C172.108 14.6773 172.289 13.8827 172.652 13.2C173.025 12.5067 173.542 11.9733 174.204 11.6C174.876 11.2267 175.644 11.04 176.508 11.04C177.34 11.04 178.081 11.2213 178.732 11.584C179.382 11.9467 179.889 12.4587 180.252 13.12C180.614 13.7707 180.796 14.5227 180.796 15.376ZM178.892 14.8C178.881 14.128 178.641 13.5893 178.172 13.184C177.702 12.7787 177.121 12.576 176.428 12.576C175.798 12.576 175.26 12.7787 174.812 13.184C174.364 13.5787 174.097 14.1173 174.012 14.8H178.892ZM185.791 20.144C185.097 20.144 184.473 20.0213 183.919 19.776C183.375 19.52 182.943 19.1787 182.623 18.752C182.303 18.3147 182.132 17.8293 182.111 17.296H183.999C184.031 17.6693 184.207 17.984 184.527 18.24C184.857 18.4853 185.268 18.608 185.759 18.608C186.271 18.608 186.665 18.512 186.943 18.32C187.231 18.1173 187.375 17.8613 187.375 17.552C187.375 17.2213 187.215 16.976 186.895 16.816C186.585 16.656 186.089 16.48 185.407 16.288C184.745 16.1067 184.207 15.9307 183.791 15.76C183.375 15.5893 183.012 15.328 182.703 14.976C182.404 14.624 182.255 14.16 182.255 13.584C182.255 13.1147 182.393 12.688 182.671 12.304C182.948 11.9093 183.343 11.6 183.855 11.376C184.377 11.152 184.975 11.04 185.647 11.04C186.649 11.04 187.455 11.296 188.063 11.808C188.681 12.3093 189.012 12.9973 189.055 13.872H187.231C187.199 13.4773 187.039 13.1627 186.751 12.928C186.463 12.6933 186.073 12.576 185.583 12.576C185.103 12.576 184.735 12.6667 184.479 12.848C184.223 13.0293 184.095 13.2693 184.095 13.568C184.095 13.8027 184.18 14 184.351 14.16C184.521 14.32 184.729 14.448 184.975 14.544C185.22 14.6293 185.583 14.7413 186.063 14.88C186.703 15.0507 187.225 15.2267 187.631 15.408C188.047 15.5787 188.404 15.8347 188.703 16.176C189.001 16.5173 189.156 16.9707 189.167 17.536C189.167 18.0373 189.028 18.4853 188.751 18.88C188.473 19.2747 188.079 19.584 187.567 19.808C187.065 20.032 186.473 20.144 185.791 20.144Z" fill="#262626"/>
</svg>
