<svg width="20" height="20" viewBox="0 0 20 20" fill="none" xmlns="http://www.w3.org/2000/svg">
<mask id="path-1-outside-1_2990_10682" maskUnits="userSpaceOnUse" x="0" y="0" width="19" height="19" fill="black">
<rect fill="white" width="19" height="19"/>
<path d="M17 17L13.4584 13.4521ZM15.4211 8.71053C15.4211 10.4903 14.7141 12.1971 13.4556 13.4556C12.1971 14.7141 10.4903 15.4211 8.71053 15.4211C6.93078 15.4211 5.22394 14.7141 3.96547 13.4556C2.707 12.1971 2 10.4903 2 8.71053C2 6.93078 2.707 5.22394 3.96547 3.96547C5.22394 2.707 6.93078 2 8.71053 2C10.4903 2 12.1971 2.707 13.4556 3.96547C14.7141 5.22394 15.4211 6.93078 15.4211 8.71053V8.71053Z"/>
</mask>
<path d="M15.5845 18.413C16.3649 19.1947 17.6312 19.1958 18.413 18.4155C19.1947 17.6351 19.1958 16.3688 18.4155 15.587L15.5845 18.413ZM14.8739 12.0392C14.0935 11.2574 12.8272 11.2563 12.0455 12.0366C11.2637 12.817 11.2626 14.0833 12.0429 14.8651L14.8739 12.0392ZM2 8.71053H0H2ZM8.71053 2V0V2ZM18.4155 15.587L14.8739 12.0392L12.0429 14.8651L15.5845 18.413L18.4155 15.587ZM13.4211 8.71053C13.4211 9.95984 12.9248 11.158 12.0414 12.0414L14.8698 14.8698C16.5033 13.2363 17.4211 11.0207 17.4211 8.71053H13.4211ZM12.0414 12.0414C11.158 12.9248 9.95984 13.4211 8.71053 13.4211V17.4211C11.0207 17.4211 13.2363 16.5033 14.8698 14.8698L12.0414 12.0414ZM8.71053 13.4211C7.46122 13.4211 6.26308 12.9248 5.37968 12.0414L2.55125 14.8698C4.1848 16.5033 6.40035 17.4211 8.71053 17.4211V13.4211ZM5.37968 12.0414C4.49629 11.158 4 9.95984 4 8.71053H0C0 11.0207 0.917714 13.2363 2.55125 14.8698L5.37968 12.0414ZM4 8.71053C4 7.46122 4.49629 6.26308 5.37968 5.37968L2.55125 2.55125C0.917714 4.18479 0 6.40035 0 8.71053H4ZM5.37968 5.37968C6.26308 4.49629 7.46122 4 8.71053 4V0C6.40035 0 4.18479 0.917714 2.55125 2.55125L5.37968 5.37968ZM8.71053 4C9.95984 4 11.158 4.49629 12.0414 5.37968L14.8698 2.55125C13.2363 0.917714 11.0207 0 8.71053 0L8.71053 4ZM12.0414 5.37968C12.9248 6.26308 13.4211 7.46122 13.4211 8.71053H17.4211C17.4211 6.40035 16.5033 4.1848 14.8698 2.55125L12.0414 5.37968Z" fill="#262626" mask="url(#path-1-outside-1_2990_10682)"/>
</svg>
