<svg width="22" height="22" viewBox="0 0 22 22" fill="none" xmlns="http://www.w3.org/2000/svg">
<path d="M4.72397 10.0047L4.72401 10.0046L1.08951 6.36773L1.08866 6.36688L1.08866 6.36688C0.871689 6.14767 0.75 5.85165 0.75 5.54319C0.75 5.23473 0.871689 4.93871 1.08866 4.7195L1.0895 4.71865L1.08951 4.71865L4.72401 1.08175L4.72964 1.07612L4.72973 1.07621C4.89552 0.920555 5.10198 0.815032 5.32524 0.771875C5.5485 0.728717 5.7794 0.749694 5.99123 0.832372L5.9973 0.834739L5.99726 0.834817C6.20815 0.92352 6.38806 1.07269 6.51433 1.26351C6.6405 1.45419 6.70749 1.67793 6.70687 1.90659M4.72397 10.0047L6.45687 1.90629M4.72397 10.0047L4.72804 10.0086C4.94871 10.2196 5.24187 10.338 5.54719 10.3393L5.54933 10.3393C5.70117 10.3386 5.85154 10.3095 5.99265 10.2534L5.99267 10.2535L5.99726 10.2516C6.20815 10.1629 6.38806 10.0137 6.51433 9.82287C6.6405 9.63219 6.70749 9.40845 6.70687 9.1798M4.72397 10.0047L5.90034 10.0211C6.06571 9.95156 6.2068 9.83458 6.30584 9.68491C6.40488 9.53524 6.45743 9.35959 6.45687 9.18009M6.70687 1.90659C6.70687 1.90675 6.70687 1.90691 6.70687 1.90708L6.45687 1.90629M6.70687 1.90659V1.90629H6.45687M6.70687 1.90659V4.38397M6.45687 1.90629V4.38397H6.70687M6.70687 4.38397V4.63397H20.0863C20.3272 4.63397 20.5584 4.72976 20.7288 4.90027C20.8992 5.07079 20.9949 5.30205 20.9949 5.54319C20.9949 5.78433 20.8992 6.0156 20.7288 6.18611C20.5584 6.35662 20.3272 6.45241 20.0863 6.45241H6.70687V6.70241M6.70687 4.38397H20.0863C20.3936 4.38397 20.6883 4.50614 20.9056 4.72355C21.1229 4.94096 21.2449 5.2358 21.2449 5.54319C21.2449 5.85058 21.1229 6.14542 20.9056 6.36283C20.6883 6.58024 20.3936 6.70241 20.0863 6.70241H6.70687M6.70687 6.70241H6.45687V9.18009M6.70687 6.70241V9.1798M6.70687 9.1798C6.70687 9.17963 6.70687 9.17947 6.70687 9.17931L6.45687 9.18009M6.70687 9.1798V9.18009H6.45687M20.9105 17.2784L20.9113 17.2776L15.2931 20.09L15.5431 20.0908H15.2931V20.0903C15.2925 20.319 15.3595 20.5428 15.4857 20.7336C15.6119 20.9244 15.7918 21.0735 16.0027 21.1623L16.0027 21.1623L16.0073 21.1641C16.1485 21.2202 16.2988 21.2493 16.4507 21.25L16.4528 21.25C16.7581 21.2487 17.0513 21.1303 17.272 20.9193L17.272 20.9193L17.276 20.9153L20.9105 17.2784ZM1.91374 17.6131H15.2931L15.5431 12.817H15.2931V12.8174C15.2931 12.8176 15.2931 12.8177 15.2931 12.8178L15.2931 15.2947H1.91374C1.6064 15.2947 1.31168 15.4168 1.09441 15.6342C0.877141 15.8517 0.755111 16.1465 0.755111 16.4539C0.755111 16.7613 0.877141 17.0561 1.09441 17.2735C1.31168 17.4909 1.6064 17.6131 1.91374 17.6131Z" fill="black" stroke="black" stroke-width="0.5"/>
</svg>
