<svg width="26" height="26" viewBox="0 0 26 26" fill="none" xmlns="http://www.w3.org/2000/svg">
<path d="M20.4118 9.67442C20.4118 7.75006 19.6309 5.90451 18.2409 4.54378C16.8509 3.18305 14.9657 2.4186 13 2.4186C11.0343 2.4186 9.14907 3.18305 7.75909 4.54378C6.36912 5.90451 5.58824 7.75006 5.58824 9.67442V19.3488H20.4118V9.67442ZM22.8824 20.1554L23.3765 20.8C23.4453 20.8898 23.4872 20.9967 23.4975 21.1085C23.5078 21.2203 23.4861 21.3328 23.4348 21.4332C23.3835 21.5336 23.3046 21.6181 23.2071 21.6771C23.1095 21.7362 22.9971 21.7674 22.8824 21.7674H3.11765C3.00294 21.7674 2.8905 21.7362 2.79293 21.6771C2.69536 21.6181 2.6165 21.5336 2.56521 21.4332C2.51391 21.3328 2.49219 21.2203 2.5025 21.1085C2.5128 20.9967 2.55471 20.8898 2.62353 20.8L3.11765 20.1554V9.67442C3.11765 7.1086 4.15882 4.64788 6.01212 2.83357C7.86542 1.01927 10.379 0 13 0C15.621 0 18.1346 1.01927 19.9879 2.83357C21.8412 4.64788 22.8824 7.1086 22.8824 9.67442V20.1554ZM9.91176 22.9767H16.0882C16.0882 23.7786 15.7629 24.5475 15.1837 25.1145C14.6046 25.6815 13.8191 26 13 26C12.1809 26 11.3954 25.6815 10.8163 25.1145C10.2371 24.5475 9.91176 23.7786 9.91176 22.9767Z" fill="white"/>
</svg>
