<svg width="102" height="150" viewBox="0 0 102 150" fill="none" xmlns="http://www.w3.org/2000/svg">
<path d="M14.5714 14.9148V134.233H87.4286V14.9148H14.5714ZM7.28571 0H94.7143C96.6466 0 98.4997 0.785689 99.8661 2.18422C101.232 3.58276 102 5.47958 102 7.45741V141.691C102 143.669 101.232 145.565 99.8661 146.964C98.4997 148.363 96.6466 149.148 94.7143 149.148H7.28571C5.35342 149.148 3.50027 148.363 2.13394 146.964C0.767601 145.565 0 143.669 0 141.691V7.45741C0 5.47958 0.767601 3.58276 2.13394 2.18422C3.50027 0.785689 5.35342 0 7.28571 0ZM51 111.861C52.9323 111.861 54.7854 112.647 56.1518 114.045C57.5181 115.444 58.2857 117.341 58.2857 119.319C58.2857 121.296 57.5181 123.193 56.1518 124.592C54.7854 125.99 52.9323 126.776 51 126.776C49.0677 126.776 47.2146 125.99 45.8482 124.592C44.4819 123.193 43.7143 121.296 43.7143 119.319C43.7143 117.341 44.4819 115.444 45.8482 114.045C47.2146 112.647 49.0677 111.861 51 111.861Z" fill="#D9DADD"/>
</svg>
