<svg width="36" height="40" viewBox="0 0 36 40" fill="none" xmlns="http://www.w3.org/2000/svg">
<path d="M29.5835 39.1667C27.9863 39.1667 26.6286 38.6076 25.5106 37.4896C24.3925 36.3715 23.8335 35.0139 23.8335 33.4167C23.8335 33.225 23.8814 32.7778 23.9772 32.075L10.5127 24.2167C10.0016 24.6958 9.41058 25.0715 8.73975 25.3437C8.06891 25.6158 7.35016 25.7513 6.5835 25.75C4.98627 25.75 3.62863 25.191 2.51058 24.0729C1.39252 22.9549 0.833496 21.5972 0.833496 20C0.833496 18.4028 1.39252 17.0451 2.51058 15.9271C3.62863 14.809 4.98627 14.25 6.5835 14.25C7.35016 14.25 8.06891 14.3861 8.73975 14.6583C9.41058 14.9304 10.0016 15.3055 10.5127 15.7833L23.9772 7.92501C23.9134 7.7014 23.8737 7.48609 23.8584 7.27909C23.8431 7.07209 23.8348 6.84018 23.8335 6.58334C23.8335 4.98612 24.3925 3.62848 25.5106 2.51043C26.6286 1.39237 27.9863 0.833344 29.5835 0.833344C31.1807 0.833344 32.5384 1.39237 33.6564 2.51043C34.7745 3.62848 35.3335 4.98612 35.3335 6.58334C35.3335 8.18057 34.7745 9.5382 33.6564 10.6563C32.5384 11.7743 31.1807 12.3333 29.5835 12.3333C28.8168 12.3333 28.0981 12.1973 27.4272 11.9251C26.7564 11.6529 26.1654 11.2779 25.6543 10.8L12.1897 18.6583C12.2536 18.882 12.2939 19.0979 12.3105 19.3062C12.3271 19.5145 12.3348 19.7457 12.3335 20C12.3322 20.2543 12.3246 20.4862 12.3105 20.6958C12.2964 20.9053 12.2562 21.1206 12.1897 21.3417L25.6543 29.2C26.1654 28.7208 26.7564 28.3458 27.4272 28.0749C28.0981 27.804 28.8168 27.668 29.5835 27.6667C31.1807 27.6667 32.5384 28.2257 33.6564 29.3438C34.7745 30.4618 35.3335 31.8195 35.3335 33.4167C35.3335 35.0139 34.7745 36.3715 33.6564 37.4896C32.5384 38.6076 31.1807 39.1667 29.5835 39.1667Z" fill="#5E5F5F"/>
</svg>
