<svg width="22" height="22" viewBox="0 0 22 22" fill="none" xmlns="http://www.w3.org/2000/svg">
<path d="M18.3334 20.1667H16.5V18.4206C16.5 17.726 16.2103 17.0599 15.6946 16.5687C15.1788 16.0775 14.4794 15.8016 13.75 15.8016H8.25002C7.52068 15.8016 6.8212 16.0775 6.30548 16.5687C5.78975 17.0599 5.50002 17.726 5.50002 18.4206V20.1667H3.66669V18.4206C3.66669 17.2629 4.14957 16.1527 5.00911 15.3341C5.86866 14.5154 7.03444 14.0556 8.25002 14.0556H13.75C14.9656 14.0556 16.1314 14.5154 16.9909 15.3341C17.8505 16.1527 18.3334 17.2629 18.3334 18.4206V20.1667ZM11 12.3095C10.2778 12.3095 9.56255 12.174 8.89526 11.9108C8.22797 11.6476 7.62165 11.2617 7.11093 10.7753C6.60021 10.2889 6.19508 9.71147 5.91868 9.07596C5.64228 8.44044 5.50002 7.7593 5.50002 7.07143C5.50002 6.38355 5.64228 5.70241 5.91868 5.0669C6.19508 4.43138 6.60021 3.85394 7.11093 3.36753C7.62165 2.88113 8.22797 2.4953 8.89526 2.23206C9.56255 1.96882 10.2778 1.83333 11 1.83333C12.4587 1.83333 13.8577 2.3852 14.8891 3.36753C15.9206 4.34987 16.5 5.6822 16.5 7.07143C16.5 8.46066 15.9206 9.79299 14.8891 10.7753C13.8577 11.7577 12.4587 12.3095 11 12.3095ZM11 10.5635C11.9725 10.5635 12.9051 10.1956 13.5927 9.54069C14.2804 8.8858 14.6667 7.99758 14.6667 7.07143C14.6667 6.14527 14.2804 5.25705 13.5927 4.60217C12.9051 3.94728 11.9725 3.57936 11 3.57936C10.0276 3.57936 9.09493 3.94728 8.4073 4.60217C7.71966 5.25705 7.33335 6.14527 7.33335 7.07143C7.33335 7.99758 7.71966 8.8858 8.4073 9.54069C9.09493 10.1956 10.0276 10.5635 11 10.5635Z" fill="white"/>
</svg>
